<svg xmlns="http://www.w3.org/2000/svg" viewBox="0 0 1024 1024" width="1024" height="1024">
  <defs>
    <linearGradient id="grad" gradientUnits="userSpaceOnUse" x1="79.44" y1="943.56" x2="944.56" y2="78.44"><stop offset="0%" stop-color="#6373D6"/><stop offset="50%" stop-color="#9B56A9"/><stop offset="75%" stop-color="#CC4E5C"/><stop offset="88%" stop-color="#E34A3C"/><stop offset="100%" stop-color="#E34A3C"/></linearGradient>
    <clipPath id="tr"><polygon points="-2000,-2000 6000,-2000 6000,6000"/></clipPath>
    <clipPath id="bl"><polygon points="-2000,-2000 -2000,6000 6000,6000"/></clipPath>
    <clipPath id="frame">
      <rect x="79.44" y="78.44" width="865.12" height="865.12"/>
    </clipPath>
    <mask id="slits">
      <rect x="-500" y="-500" width="2048" height="2048" fill="#fff"/>
      <g fill="#000">
        <g clip-path="url(#tr)"><polygon points="-3202.51,4000 4797.49,-4000 4939.48,-4000 -3060.52,4000"/></g>
        <g clip-path="url(#bl)"><polygon points="-2893.48,4000 5106.52,-4000 5248.51,-4000 -2751.49,4000"/></g>
      </g>
    </mask>
    <clipPath id="frameb">
      <rect x="73.44" y="72.44" width="877.12" height="877.12"/>
    </clipPath>
    <mask id="slitsb">
      <rect x="-500" y="-500" width="2048" height="2048" fill="#fff"/>
      <g fill="#000">
        <g clip-path="url(#tr)"><polygon points="-3194.02,4000 4805.98,-4000 4930.99,-4000 -3069.01,4000"/></g>
        <g clip-path="url(#bl)"><polygon points="-2884.99,4000 5115.01,-4000 5240.02,-4000 -2759.98,4000"/></g>
      </g>
    </mask>
  </defs>
  <g mask="url(#slitsb)" fill="#1B222B">
    <path fill-rule="evenodd" d="M73.44,72.44H950.56V949.56H73.44Z M203.56,202.56V819.44H820.44V202.56Z"/>
    <g clip-path="url(#frameb)"><polygon points="-3069.01,4000 4930.99,-4000 5115.01,-4000 -2884.99,4000"/></g>
  </g>
  <path fill="#1B222B" fill-rule="evenodd" d="M246.08,245.12H466.92V422.89L422.93,466.88H246.08Z M323.4,322.44H388.68V387.72H323.4Z"/>
  <path fill="#1B222B" fill-rule="evenodd" d="M557.08,776.88H777.92V555.12H601.07L557.08,599.11Z M635.32,634.28H700.6V699.56H635.32Z"/>
  <g mask="url(#slits)" fill="url(#grad)">
    <path fill-rule="evenodd" d="M79.44,78.44H944.56V943.56H79.44Z M197.56,196.56V825.44H826.44V196.56Z"/>
    <g clip-path="url(#frame)"><polygon points="-3060.52,4000 4939.48,-4000 5106.52,-4000 -2893.48,4000"/></g>
  </g>
  <path fill="#35A06C" fill-rule="evenodd" d="M252.08,251.12H460.92V420.4L420.44,460.88H252.08Z M317.4,316.44H394.68V393.72H317.4Z"/>
  <path fill="#2E77AA" fill-rule="evenodd" d="M563.08,770.88H771.92V561.12H603.56L563.08,601.6Z M629.32,628.28H706.6V705.56H629.32Z"/>
</svg>
